<svg xmlns="http://www.w3.org/2000/svg" xmlns:xlink="http://www.w3.org/1999/xlink" id="Layer_1" width="18.844" height="15.594" x="0" y="0" enable-background="new 0 0 18.844 15.594" version="1.1" viewBox="0 0 18.844 15.594" xml:space="preserve"><g><g><path d="M6.851,13.411c-3.681,0-6.675-2.994-6.675-6.674c0-3.682,2.994-6.676,6.675-6.676s6.675,2.994,6.675,6.676 C13.526,10.417,10.532,13.411,6.851,13.411z M6.851,1.911c-2.662,0-4.826,2.165-4.826,4.826c0,2.662,2.165,4.826,4.826,4.826 c2.662,0,4.826-2.164,4.826-4.826C11.677,4.076,9.513,1.911,6.851,1.911z"/></g><g><rect width="1" height="5" x="6.906" y="2.969"/></g><g><rect width="4" height="1" x="3.906" y="6.969"/></g></g></svg>